<svg xmlns="http://www.w3.org/2000/svg" viewBox="0 0 984.22 738.87">
    <title>cover-2b</title>
    <g id="Background">
        <circle cx="501.92" cy="377.29" r="340.54" opacity="0.14" />
    </g>
    <g id="Line_2">
        <path d="M2418.61,968.69c25,7.29,58.79,28.4,82.17,54,22.1,24.2,34.69,52.63,30.22,70.18-2.78,10.92-11,22.15-22,27-31.42,13.82-80.61-29.87-101.35-55.5-2-2.45-28.65-35.93-25-48.92,3.91-14.08,21.31-4,29.74,1.76,19.76,13.5,64.24,65.73,80,106.24,15.85,40.7-.55,51.32-22.11,48.33-28.17-3.91-68.09-49.31-68.09-49.31s3.64,142.54-90,212.09c-90.26,67-217,45.65-265.3,37.57-76.31-12.79-231.41-57.08-290.35-107.22-10.66-9.07-36-29.74-26.61-44.87,9-14.48,42.79-15.65,66.52-12.57,57.77,7.5,146,40,189.4,66.83,56.6,35,135.3,95.73,143.26,176.09,7.26,73.3-33.78,136-73.28,160.52-54.52,33.78-109.38,45.3-169.73,34.76-24.42-4.27-72.69-16.06-106.08-42.67" transform="translate(-1667.08 -922.78)" fill="none" stroke="#231f20" stroke-linecap="round" stroke-miterlimit="10" stroke-width="3" />
        <path d="M2301.22,1176.18c152.7,11.25,267.9,76.48,287.21,172.47,9,44.74-.78,75.91-.78,75.91-.38,2.15-6.44,17.72-15.65,27.2-6.68,6.87-16.59,8.68-19.57,8.8-23.08,1-41.47-34-49.3-68.87-2.32-10.34-9.21-39.72-11.15-64.37-.73-9.3-1.88-40.7,4.11-40.89,4.17-.13,10.95,11,14.67,41.87,2.7,22.47-3.47,51.39-6.46,61.24-4.33,14.27-14.41,24-16.43,25.43-3.17,2.17-12.56,6.44-18.78-.78-3.15-3.65-8.43-13.5-11.87-27.72-6.25-25.77-9.11-61.52-9.11-61.52s-41.38,55.63-56.11,72.81c-6.25,7.28-18,21.32-27.39,29" transform="translate(-1667.08 -922.78)" fill="none" stroke="#000" stroke-linecap="round" stroke-linejoin="round" stroke-width="3" />
        <circle cx="648.96" cy="534.51" r="56.42" fill="none" stroke="#000" stroke-miterlimit="10" stroke-width="3" />
        <line x1="648.89" y1="516.66" x2="648.89" y2="554.44" fill="none" stroke="#000" stroke-linecap="round" stroke-miterlimit="10" stroke-width="3" />
        <line x1="667.78" y1="535.55" x2="630.01" y2="535.55" fill="none" stroke="#000" stroke-linecap="round" stroke-miterlimit="10" stroke-width="3" />
        <path d="M2324.7,1628.43s-41.32,3.5-77.58-16.32c-18.38-10-35.9-39.24-35.9-39.24v41.65L2167,1567.78" transform="translate(-1667.08 -922.78)" fill="none" stroke="#000" stroke-linecap="round" stroke-miterlimit="10" stroke-width="3" />
        <path d="M2325.87,1155.61s-24.65,8.36-43.83,12c-22,4.17-49,2.46-49,2.46s32.09,4.32,48.22,11.32c16.83,7.3,29.31,20.91,29.31,20.91" transform="translate(-1667.08 -922.78)" fill="none" stroke="#000" stroke-linecap="round" stroke-linejoin="round" stroke-width="3" />
        <path d="M2245,1040.87c-.37-21.84-30.13-25.35-51.78-23.79-14.13,1-43.32,8.34-79.69,22.57,37.61,13.17,71,22.95,93.25,24.39C2221.06,1065,2245.39,1063.78,2245,1040.87Z" transform="translate(-1667.08 -922.78)" fill="none" stroke="#000" stroke-miterlimit="10" stroke-width="3" />
        <path d="M2519,1545.87s-191,0-296-8c-44.44-3.39-107.33-10.36-169.71-24.55l16.26-53.9a20.51,20.51,0,0,0,.41-10.29h0a9.92,9.92,0,0,0-2.25-6.3l-26.59-32.51a25.38,25.38,0,0,0-19.78-9.45H1961a5.5,5.5,0,0,0-5.27,3.9l-21.13,69.34c-37-17.69-67.62-40-85.55-68.24-34.54-54.37-40.21-137.95,67-242a530.31,530.31,0,0,1,68.08-55.53,646.88,646.88,0,0,1,129.45-68.69c-92.14-32.24-209.68-84.79-251.36-84.79-33.24,0-35.17,25-35.17,25" transform="translate(-1667.08 -922.78)" fill="none" stroke="#000" stroke-miterlimit="10" stroke-width="3" />
        <path d="M1934.55,1474.11,1905.62,1569a3.68,3.68,0,0,0,3.52,4.75l120.49,1a6.89,6.89,0,0,0,6.57-4.82l17.09-56.64" transform="translate(-1667.08 -922.78)" fill="none" stroke="#000" stroke-miterlimit="10" stroke-width="3" />
        <path d="M2030,1402.4s8.32,3.67,8,12.29c-.22,6.24-9.47,32.09-9.47,32.09s20.11-7.74,28.86-7.84c6.69-.07,11.36,6.52,11.36,6.52" transform="translate(-1667.08 -922.78)" fill="none" stroke="#000" stroke-linejoin="round" stroke-width="3" />
    </g>
    <g id="Elements">
        <circle id="Circle" cx="475.35" cy="338.28" r="10.7" fill="none" stroke="#000" stroke-linejoin="round" stroke-width="3" />
        <circle id="Circle-2" data-name="Circle" cx="768.96" cy="726.67" r="10.7" fill="none" stroke="#000" stroke-linejoin="round" stroke-width="3" />
        <circle id="Circle-3" data-name="Circle" cx="114.1" cy="133.74" r="19.48" fill="none" stroke="#000" stroke-linejoin="round" stroke-width="3" />
        <g id="Arrow">
            <line id="Line" x1="652.94" y1="32.59" x2="571.02" y2="32.59" stroke-width="3" stroke="#000" stroke-linecap="round" stroke-linejoin="round" fill="none" />
            <polyline id="Angle" points="623.35 1.5 653.74 32.33 623.35 62.67" fill="none" stroke="#000" stroke-linecap="round" stroke-linejoin="round" stroke-width="3" />
        </g>
    </g>
    <g id="Icons">
        <path id="Design" d="M1787.28,1455.92h4.08a2,2,0,0,0,2-2v-12.23a2,2,0,0,0-2-2h-12.23a2,2,0,0,0-2,2v12.23a2,2,0,0,0,2,2h4.08a44.86,44.86,0,0,1-42.79,44.77v-6.06a2,2,0,0,0-2-2h-16.3a2,2,0,0,0-2,2v6.12h-37a8.15,8.15,0,1,0,0,4.07h19.48a49,49,0,0,0-29.38,44.82h-4.08a2,2,0,0,0-2,2v12.23a2,2,0,0,0,2,2h12.23a2,2,0,0,0,2-2v-12.23a2,2,0,0,0-2-2h-4.08a44.88,44.88,0,0,1,42.79-44.77v6.06a2,2,0,0,0,2,2h16.3a2,2,0,0,0,2-2v-6.11h37a8.16,8.16,0,1,0,0-4.07H1757.9A49,49,0,0,0,1787.28,1455.92Zm-6.11-4.07v-8.15h8.15v8.15Zm-105.94,55a4.08,4.08,0,1,1,4.07-4.08A4.08,4.08,0,0,1,1675.23,1506.86Zm4.07,46.86v8.15h-8.15v-8.15Zm57-44.82h-12.23v-12.23h12.23Zm48.9-10.19a4.08,4.08,0,1,1-4.08,4.07A4.08,4.08,0,0,1,1785.25,1498.71Z" transform="translate(-1667.08 -922.78)" />
        <path id="Information" d="M2568.3,1512.36h6.39v3.19h-6.39Zm9.58,3.19h6.38v-3.19h-6.38Zm12.77,0h12.76v-3.19h-12.76Zm-22.35,25.54h6.39v-3.19h-6.39Zm9.58,0h6.38v-3.19h-6.38Zm12.77,0h12.76v-3.19h-12.76Zm-22.35,25.54h6.39v-3.2h-6.39Zm9.58,0h6.38v-3.2h-6.38Zm12.77,0h12.76v-3.2h-12.76Zm11.17,22.34a3.2,3.2,0,1,0,3.19,3.19A3.19,3.19,0,0,0,2601.82,1589Zm49.48,3.19a1.6,1.6,0,0,1-1.6,1.6h-38.45a9.56,9.56,0,0,1-18.86,0h-38.45a1.6,1.6,0,1,1,0-3.19h38.45a9.58,9.58,0,0,1,7.83-7.84v-6.53h-39.9a1.6,1.6,0,0,1-1.6-1.59v-19.16a1.6,1.6,0,0,1,1.6-1.59h39.9v-3.19h-39.9a1.6,1.6,0,0,1-1.6-1.6v-19.15a1.6,1.6,0,0,1,1.6-1.6h39.9v-3.19h-39.9a1.6,1.6,0,0,1-1.6-1.6v-19.15a1.6,1.6,0,0,1,1.6-1.6h83a1.6,1.6,0,0,1,1.59,1.6v19.15a1.6,1.6,0,0,1-1.59,1.6h-39.91v3.19h39.91a1.6,1.6,0,0,1,1.59,1.6v19.15a1.6,1.6,0,0,1-1.59,1.6h-39.91v3.19h39.91a1.59,1.59,0,0,1,1.59,1.59v19.16a1.59,1.59,0,0,1-1.59,1.59h-39.91v6.53a9.6,9.6,0,0,1,7.84,7.84h38.45A1.6,1.6,0,0,1,2651.3,1592.16Zm-89.38-70.22h79.8v-16h-79.8Zm0,25.53h79.8v-16h-79.8Zm0,25.54h79.8v-16h-79.8Zm46.28,19.15a6.39,6.39,0,1,0-6.38,6.39A6.38,6.38,0,0,0,2608.2,1592.16Z" transform="translate(-1667.08 -922.78)" />
        <g id="Design-system">
            <path d="M2149.52,1142.64h-6v-6a2.83,2.83,0,0,0-3-3h-6v-6a2.83,2.83,0,0,0-3-3H2023.39a2.83,2.83,0,0,0-3,3v72.07a2.84,2.84,0,0,0,3,3h6v6a2.83,2.83,0,0,0,3,3h6v6a2.83,2.83,0,0,0,3,3h108.11a2.83,2.83,0,0,0,3-3v-72.07A2.83,2.83,0,0,0,2149.52,1142.64Zm-126.13,57v-72.07H2130a1.42,1.42,0,0,1,1.5,1.51v70.56H2023.39Zm9,9v-6h99.1a2.84,2.84,0,0,0,3-3v-63.06H2139a1.42,1.42,0,0,1,1.5,1.5v70.57H2032.4Zm117.12,9H2041.41v-6h99.1a2.83,2.83,0,0,0,3-3v-63.06h4.5a1.43,1.43,0,0,1,1.51,1.5Z" transform="translate(-1667.08 -922.78)" />
            <path d="M2082.25,1160.36a9.8,9.8,0,0,0,6.91-3h.6a6.34,6.34,0,0,0,6.3-6.3,6.45,6.45,0,0,0-6.3-6.61h-.6a4.67,4.67,0,0,0-2.4-1.8,9.85,9.85,0,0,0-4.21-1.2,6.89,6.89,0,0,0-4.2,1.2,6.53,6.53,0,0,0-3.31,3,10.37,10.37,0,0,0-1.5,5.41A8.52,8.52,0,0,0,2082.25,1160.36ZM2088,1148a8.82,8.82,0,0,1,.6,2.71,7.16,7.16,0,0,1-.6,2.7,3.16,3.16,0,0,1-1.51-2.7A3.61,3.61,0,0,1,2088,1148Zm3,6a10.78,10.78,0,0,0,.6-3.3,12.83,12.83,0,0,0-.6-3.31,3.69,3.69,0,0,1,2.1,3.31A3.24,3.24,0,0,1,2091,1154.05Zm-8.71-9.61a5.77,5.77,0,0,1,3.6,1.2h0a6.68,6.68,0,0,0-2.7,5.11,5.89,5.89,0,0,0,2.7,5.1,7.35,7.35,0,0,1-3.6,1.2,6.16,6.16,0,0,1-6.31-6.3,7.3,7.3,0,0,1,2.71-5.41A15.82,15.82,0,0,1,2082.25,1144.44Z" transform="translate(-1667.08 -922.78)" />
            <path d="M2079.25,1184.38a2.7,2.7,0,0,0,1.5-.3,8.38,8.38,0,0,0,6,2.4,9,9,0,0,0,0-18,8.58,8.58,0,0,0-6.61,3h-.9a6.34,6.34,0,0,0-6.31,6.3A6.61,6.61,0,0,0,2079.25,1184.38Zm3.6-6.31a5.46,5.46,0,0,1-1.2,2.71,5.12,5.12,0,0,1-.9-3,5.65,5.65,0,0,1,.6-2.4A3.15,3.15,0,0,1,2082.85,1178.07Zm3.91-6.6a6,6,0,0,1,0,12,6.85,6.85,0,0,1-3.31-.9,7.1,7.1,0,0,0,2.1-4.81,5.89,5.89,0,0,0-2.7-5.1A11.43,11.43,0,0,1,2086.76,1171.47Zm-8.41,3.3a8.88,8.88,0,0,0-.6,3,8.06,8.06,0,0,0,.9,3.61,3.54,3.54,0,0,1-2.71-3.31A3,3,0,0,1,2078.35,1174.77Z" transform="translate(-1667.08 -922.78)" />
            <path d="M2109.28,1154.35a2.55,2.55,0,0,0,2.4,0l6.61-6.61a1.41,1.41,0,0,0,.3-1.8.29.29,0,0,0-.3-.3,1.46,1.46,0,0,0-2.11,0h-.3l-5.4,5.41-1.8-1.81a1.49,1.49,0,0,0-2.11,2.11Z" transform="translate(-1667.08 -922.78)" />
            <path d="M2116.78,1172.37a1.45,1.45,0,0,0-2.1,0l-2.7,2.7-2.7-2.7a1.49,1.49,0,0,0-2.11,2.1l2.71,2.7-2.71,2.7a1.46,1.46,0,0,0,0,2.11c.31.3.61.3,1.21.3s.9,0,1.2-.3l2.7-2.71,2.7,2.71c.3.3.6.3,1.2.3s.9,0,1.2-.3a1.45,1.45,0,0,0,0-2.11l-2.7-2.7,2.7-2.7A2.86,2.86,0,0,0,2116.78,1172.37Z" transform="translate(-1667.08 -922.78)" />
            <path d="M2035.41,1145.64h24a1.5,1.5,0,0,0,0-3h-24a1.5,1.5,0,1,0,0,3Z" transform="translate(-1667.08 -922.78)" />
            <path d="M2035.41,1151.65h24a1.51,1.51,0,0,0,0-3h-24a1.51,1.51,0,1,0,0,3Z" transform="translate(-1667.08 -922.78)" />
            <path d="M2035.41,1157.65h24a1.5,1.5,0,0,0,0-3h-24a1.5,1.5,0,1,0,0,3Z" transform="translate(-1667.08 -922.78)" />
            <path d="M2035.41,1163.66h24a1.5,1.5,0,0,0,0-3h-24a1.5,1.5,0,1,0,0,3Z" transform="translate(-1667.08 -922.78)" />
            <path d="M2035.41,1169.66h21a1.5,1.5,0,0,0,0-3h-21a1.5,1.5,0,1,0,0,3Z" transform="translate(-1667.08 -922.78)" />
        </g>
    </g>
</svg>